<svg xmlns="http://www.w3.org/2000/svg" xmlns:xlink="http://www.w3.org/1999/xlink" width="40" zoomAndPan="magnify" viewBox="0 0 30 30.000001" height="40" preserveAspectRatio="xMidYMid meet" version="1.0"><defs><clipPath id="3ca0543485"><path d="M 6 0.460938 L 15 0.460938 L 15 8 L 6 8 Z M 6 0.460938 " clip-rule="nonzero"/></clipPath><clipPath id="fb67fcd33c"><path d="M 23 10 L 29.515625 10 L 29.515625 19 L 23 19 Z M 23 10 " clip-rule="nonzero"/></clipPath><clipPath id="93f3f16177"><path d="M 14 0.460938 L 24 0.460938 L 24 8 L 14 8 Z M 14 0.460938 " clip-rule="nonzero"/></clipPath><clipPath id="c1aba959fd"><path d="M 15 22 L 24 22 L 24 28.765625 L 15 28.765625 Z M 15 22 " clip-rule="nonzero"/></clipPath><clipPath id="8528bcc149"><path d="M 6 22 L 15 22 L 15 28.765625 L 6 28.765625 Z M 6 22 " clip-rule="nonzero"/></clipPath><clipPath id="86bb069e89"><path d="M 0.484375 10 L 7 10 L 7 20 L 0.484375 20 Z M 0.484375 10 " clip-rule="nonzero"/></clipPath></defs><g clip-path="url(#3ca0543485)"><path fill="#ff3131" d="M 9.792969 7.195312 C 11.289062 6.160156 12.949219 5.617188 14.769531 5.578125 L 14.769531 0.464844 C 13.339844 0.484375 11.945312 0.71875 10.582031 1.160156 C 9.222656 1.601562 7.960938 2.234375 6.789062 3.058594 L 9.796875 7.191406 Z M 9.792969 7.195312 " fill-opacity="1" fill-rule="nonzero"/></g><path fill="#ff3131" d="M 6.34375 11.699219 C 6.949219 9.984375 7.972656 8.574219 9.414062 7.46875 L 9.503906 7.398438 L 9.597656 7.328125 L 6.589844 3.191406 L 6.5 3.261719 L 6.40625 3.332031 C 4.070312 5.089844 2.421875 7.351562 1.472656 10.117188 L 6.324219 11.695312 Z M 6.34375 11.699219 " fill-opacity="1" fill-rule="nonzero"/><g clip-path="url(#fb67fcd33c)"><path fill="#ff3131" d="M 23.792969 12.136719 C 24.316406 13.878906 24.316406 15.625 23.792969 17.367188 L 28.648438 18.949219 C 29.070312 17.582031 29.277344 16.183594 29.277344 14.753906 C 29.277344 13.324219 29.070312 11.925781 28.648438 10.558594 Z M 23.792969 12.136719 " fill-opacity="1" fill-rule="nonzero"/></g><path fill="#ff3131" d="M 20.574219 7.46875 C 22.019531 8.574219 23.046875 9.984375 23.652344 11.699219 C 23.664062 11.734375 23.679688 11.769531 23.691406 11.808594 C 23.703125 11.84375 23.714844 11.878906 23.726562 11.917969 L 28.597656 10.335938 L 28.519531 10.117188 C 27.566406 7.347656 25.921875 5.085938 23.582031 3.332031 L 20.578125 7.460938 Z M 20.574219 7.46875 " fill-opacity="1" fill-rule="nonzero"/><g clip-path="url(#93f3f16177)"><path fill="#ff3131" d="M 15.230469 5.578125 C 17.046875 5.621094 18.707031 6.160156 20.203125 7.195312 L 20.296875 7.265625 L 20.390625 7.328125 L 23.398438 3.195312 L 23.300781 3.125 C 23.273438 3.105469 23.238281 3.082031 23.207031 3.0625 C 22.039062 2.238281 20.773438 1.605469 19.414062 1.160156 C 18.054688 0.71875 16.660156 0.488281 15.230469 0.464844 L 14.996094 0.464844 L 14.996094 5.582031 L 15.230469 5.582031 Z M 15.230469 5.578125 " fill-opacity="1" fill-rule="nonzero"/></g><path fill="#ff3131" d="M 28.554688 19.277344 L 28.597656 19.164062 L 23.730469 17.582031 C 23.71875 17.617188 23.707031 17.65625 23.695312 17.691406 C 23.683594 17.726562 23.667969 17.765625 23.65625 17.796875 C 23.050781 19.515625 22.023438 20.925781 20.578125 22.03125 L 23.585938 26.164062 C 25.917969 24.410156 27.5625 22.152344 28.515625 19.394531 C 28.527344 19.351562 28.542969 19.316406 28.554688 19.277344 Z M 28.554688 19.277344 " fill-opacity="1" fill-rule="nonzero"/><g clip-path="url(#c1aba959fd)"><path fill="#ff3131" d="M 23.207031 26.445312 L 23.300781 26.378906 L 23.398438 26.3125 L 20.390625 22.175781 L 20.296875 22.242188 C 20.265625 22.265625 20.234375 22.289062 20.203125 22.308594 C 18.707031 23.34375 17.046875 23.882812 15.230469 23.925781 L 15.230469 29.039062 C 16.660156 29.019531 18.054688 28.789062 19.414062 28.34375 C 20.773438 27.902344 22.039062 27.269531 23.207031 26.445312 Z M 23.207031 26.445312 " fill-opacity="1" fill-rule="nonzero"/></g><g clip-path="url(#8528bcc149)"><path fill="#ff3131" d="M 9.792969 22.308594 L 6.789062 26.441406 C 7.957031 27.265625 9.222656 27.898438 10.582031 28.339844 C 11.941406 28.78125 13.335938 29.015625 14.765625 29.035156 L 14.996094 29.035156 L 14.996094 23.929688 L 14.765625 23.929688 C 12.945312 23.886719 11.289062 23.347656 9.792969 22.308594 Z M 9.792969 22.308594 " fill-opacity="1" fill-rule="nonzero"/></g><path fill="#ff3131" d="M 9.511719 22.105469 L 9.421875 22.039062 C 7.976562 20.933594 6.949219 19.519531 6.34375 17.804688 L 1.492188 19.382812 C 2.4375 22.148438 4.078125 24.414062 6.410156 26.175781 L 6.5 26.246094 L 6.59375 26.3125 L 9.597656 22.175781 Z M 9.511719 22.105469 " fill-opacity="1" fill-rule="nonzero"/><g clip-path="url(#86bb069e89)"><path fill="#ff3131" d="M 1.371094 19.058594 C 1.382812 19.09375 1.390625 19.132812 1.40625 19.167969 L 6.257812 17.589844 L 6.222656 17.480469 C 6.210938 17.441406 6.203125 17.40625 6.191406 17.367188 C 5.671875 15.625 5.671875 13.878906 6.191406 12.136719 C 6.203125 12.097656 6.210938 12.0625 6.222656 12.023438 L 6.257812 11.917969 L 1.40625 10.335938 C 1.390625 10.371094 1.382812 10.410156 1.371094 10.445312 C 1.359375 10.484375 1.347656 10.519531 1.339844 10.558594 C 0.914062 11.925781 0.703125 13.324219 0.703125 14.753906 C 0.703125 16.183594 0.914062 17.582031 1.339844 18.949219 C 1.347656 18.984375 1.359375 19.023438 1.371094 19.058594 Z M 1.371094 19.058594 " fill-opacity="1" fill-rule="nonzero"/></g><path fill="#ff3131" d="M 12.5625 17.285156 C 12.886719 17.300781 13.152344 17.191406 13.367188 16.945312 C 13.554688 16.722656 13.648438 16.316406 13.644531 15.730469 L 13.644531 13.773438 C 13.644531 13.1875 13.550781 12.78125 13.367188 12.558594 C 13.257812 12.449219 13.136719 12.363281 12.996094 12.304688 C 12.855469 12.246094 12.710938 12.21875 12.558594 12.21875 C 12.40625 12.21875 12.257812 12.246094 12.117188 12.304688 C 11.976562 12.363281 11.855469 12.449219 11.746094 12.558594 C 11.5625 12.78125 11.46875 13.1875 11.464844 13.773438 L 11.464844 15.730469 C 11.464844 16.316406 11.558594 16.722656 11.746094 16.945312 C 11.964844 17.191406 12.234375 17.304688 12.5625 17.285156 Z M 12.023438 13.671875 C 12 13.398438 12.046875 13.136719 12.167969 12.886719 C 12.257812 12.742188 12.390625 12.667969 12.5625 12.671875 C 12.917969 12.671875 13.097656 13.003906 13.097656 13.671875 L 13.097656 15.835938 C 13.097656 16.5 12.917969 16.832031 12.5625 16.832031 C 12.390625 16.835938 12.257812 16.761719 12.167969 16.617188 C 12.046875 16.371094 12 16.109375 12.023438 15.835938 Z M 12.023438 13.671875 " fill-opacity="1" fill-rule="nonzero"/><path fill="#ff3131" d="M 17.039062 16.355469 C 17.011719 16.621094 17.078125 16.863281 17.234375 17.082031 C 17.390625 17.214844 17.570312 17.285156 17.777344 17.285156 C 17.984375 17.285156 18.164062 17.214844 18.320312 17.082031 C 18.476562 16.863281 18.539062 16.621094 18.511719 16.355469 L 18.511719 15.175781 C 18.539062 14.910156 18.476562 14.667969 18.320312 14.449219 C 18.164062 14.3125 17.984375 14.246094 17.777344 14.246094 C 17.570312 14.246094 17.390625 14.3125 17.234375 14.449219 C 17.078125 14.664062 17.011719 14.910156 17.039062 15.175781 Z M 17.476562 15.113281 C 17.476562 14.761719 17.578125 14.585938 17.773438 14.585938 C 17.96875 14.585938 18.066406 14.761719 18.066406 15.113281 L 18.066406 16.417969 C 18.066406 16.769531 17.96875 16.945312 17.773438 16.945312 C 17.578125 16.945312 17.476562 16.769531 17.476562 16.417969 Z M 17.476562 15.113281 " fill-opacity="1" fill-rule="nonzero"/><path fill="#ff3131" d="M 15.90625 17.285156 L 17.175781 12.222656 L 16.78125 12.222656 L 15.511719 17.285156 Z M 15.90625 17.285156 " fill-opacity="1" fill-rule="nonzero"/><path fill="#ff3131" d="M 14.992188 15.257812 C 15.203125 15.273438 15.382812 15.207031 15.535156 15.058594 C 15.691406 14.839844 15.753906 14.597656 15.726562 14.328125 L 15.726562 13.152344 C 15.753906 12.886719 15.691406 12.644531 15.535156 12.425781 C 15.378906 12.289062 15.199219 12.222656 14.992188 12.222656 C 14.785156 12.222656 14.605469 12.289062 14.449219 12.425781 C 14.296875 12.644531 14.234375 12.886719 14.265625 13.152344 L 14.265625 14.332031 C 14.238281 14.597656 14.304688 14.839844 14.460938 15.058594 C 14.609375 15.203125 14.785156 15.269531 14.992188 15.257812 Z M 14.691406 13.089844 C 14.691406 12.738281 14.792969 12.5625 14.988281 12.5625 C 15.183594 12.5625 15.28125 12.738281 15.28125 13.089844 L 15.28125 14.390625 C 15.28125 14.742188 15.183594 14.917969 14.988281 14.917969 C 14.792969 14.917969 14.691406 14.742188 14.691406 14.390625 Z M 14.691406 13.089844 " fill-opacity="1" fill-rule="nonzero"/></svg>