<svg xmlns="http://www.w3.org/2000/svg" xmlns:xlink="http://www.w3.org/1999/xlink" width="40" zoomAndPan="magnify" viewBox="0 0 30 30.000001" height="40" preserveAspectRatio="xMidYMid meet" version="1.0"><defs><clipPath id="4274b5a625"><path d="M 7 0.792969 L 15 0.792969 L 15 8 L 7 8 Z M 7 0.792969 " clip-rule="nonzero"/></clipPath><clipPath id="74f49bc02b"><path d="M 23 10 L 28.753906 10 L 28.753906 19 L 23 19 Z M 23 10 " clip-rule="nonzero"/></clipPath><clipPath id="20647f623d"><path d="M 15 0.792969 L 24 0.792969 L 24 8 L 15 8 Z M 15 0.792969 " clip-rule="nonzero"/></clipPath><clipPath id="ac80a4b715"><path d="M 15 21 L 24 21 L 24 28.375 L 15 28.375 Z M 15 21 " clip-rule="nonzero"/></clipPath><clipPath id="00f7e0372d"><path d="M 7 21 L 16 21 L 16 28.375 L 7 28.375 Z M 7 21 " clip-rule="nonzero"/></clipPath><clipPath id="6a51f63dac"><path d="M 1.175781 10 L 7 10 L 7 19 L 1.175781 19 Z M 1.175781 10 " clip-rule="nonzero"/></clipPath></defs><g clip-path="url(#4274b5a625)"><path fill="#00bf63" d="M 14.789062 5.765625 L 14.789062 0.890625 C 11.996094 0.929688 9.457031 1.757812 7.175781 3.367188 L 10.042969 7.308594 C 11.472656 6.320312 13.054688 5.804688 14.789062 5.765625 Z M 14.789062 5.765625 " fill-opacity="1" fill-rule="nonzero"/></g><path fill="#00bf63" d="M 9.773438 7.503906 L 9.863281 7.4375 L 6.996094 3.492188 L 6.90625 3.558594 L 6.820312 3.625 C 4.589844 5.300781 3.019531 7.457031 2.113281 10.097656 L 6.742188 11.605469 C 7.320312 9.96875 8.300781 8.625 9.679688 7.570312 Z M 9.773438 7.503906 " fill-opacity="1" fill-rule="nonzero"/><g clip-path="url(#74f49bc02b)"><path fill="#00bf63" d="M 23.402344 12.023438 C 23.902344 13.6875 23.902344 15.351562 23.402344 17.015625 L 28.035156 18.523438 C 28.855469 15.855469 28.855469 13.1875 28.035156 10.519531 Z M 23.402344 12.023438 " fill-opacity="1" fill-rule="nonzero"/></g><path fill="#00bf63" d="M 23.300781 11.710938 C 23.3125 11.746094 23.324219 11.78125 23.335938 11.816406 L 27.980469 10.304688 C 27.96875 10.269531 27.957031 10.234375 27.945312 10.203125 L 27.910156 10.097656 C 27 7.457031 25.429688 5.300781 23.195312 3.625 L 20.332031 7.566406 C 21.710938 8.621094 22.6875 9.964844 23.265625 11.601562 C 23.277344 11.640625 23.289062 11.671875 23.300781 11.710938 Z M 23.300781 11.710938 " fill-opacity="1" fill-rule="nonzero"/><g clip-path="url(#20647f623d)"><path fill="#00bf63" d="M 20.0625 7.375 L 20.152344 7.4375 L 23.019531 3.492188 L 22.929688 3.425781 C 22.902344 3.40625 22.871094 3.386719 22.839844 3.367188 C 20.558594 1.757812 18.019531 0.929688 15.226562 0.890625 L 15.007812 0.890625 L 15.007812 5.769531 L 15.226562 5.769531 C 16.964844 5.808594 18.546875 6.324219 19.972656 7.3125 Z M 20.0625 7.375 " fill-opacity="1" fill-rule="nonzero"/></g><path fill="#00bf63" d="M 23.300781 17.328125 C 23.300781 17.363281 23.277344 17.398438 23.265625 17.433594 C 22.6875 19.070312 21.707031 20.414062 20.328125 21.46875 L 23.195312 25.410156 C 25.421875 23.738281 26.992188 21.582031 27.902344 18.949219 C 27.914062 18.914062 27.929688 18.878906 27.9375 18.84375 L 27.980469 18.726562 L 23.339844 17.21875 C 23.324219 17.261719 23.3125 17.296875 23.300781 17.328125 Z M 23.300781 17.328125 " fill-opacity="1" fill-rule="nonzero"/><g clip-path="url(#ac80a4b715)"><path fill="#00bf63" d="M 20.0625 21.664062 C 20.035156 21.6875 20.003906 21.707031 19.972656 21.726562 C 18.546875 22.71875 16.964844 23.230469 15.226562 23.269531 L 15.226562 28.148438 C 18.019531 28.109375 20.558594 27.285156 22.839844 25.675781 L 22.929688 25.613281 L 23.019531 25.546875 L 20.152344 21.601562 Z M 20.0625 21.664062 " fill-opacity="1" fill-rule="nonzero"/></g><g clip-path="url(#00f7e0372d)"><path fill="#00bf63" d="M 14.789062 23.269531 C 13.054688 23.230469 11.46875 22.71875 10.042969 21.726562 L 7.175781 25.667969 C 9.457031 27.277344 11.996094 28.105469 14.789062 28.144531 L 15.007812 28.144531 L 15.007812 23.277344 L 14.789062 23.277344 Z M 14.789062 23.269531 " fill-opacity="1" fill-rule="nonzero"/></g><path fill="#00bf63" d="M 9.773438 21.535156 L 9.6875 21.46875 C 8.308594 20.414062 7.332031 19.070312 6.753906 17.433594 L 2.121094 18.9375 C 3.027344 21.578125 4.589844 23.734375 6.816406 25.417969 L 6.902344 25.484375 L 6.992188 25.546875 L 9.859375 21.601562 Z M 9.773438 21.535156 " fill-opacity="1" fill-rule="nonzero"/><g clip-path="url(#6a51f63dac)"><path fill="#00bf63" d="M 6.648438 17.121094 C 6.636719 17.085938 6.628906 17.050781 6.617188 17.015625 C 6.121094 15.351562 6.121094 13.6875 6.617188 12.023438 C 6.628906 11.988281 6.636719 11.953125 6.648438 11.917969 L 6.679688 11.816406 L 2.050781 10.304688 C 2.035156 10.34375 2.027344 10.378906 2.015625 10.414062 C 2.007812 10.449219 1.996094 10.484375 1.984375 10.519531 C 1.160156 13.1875 1.160156 15.855469 1.984375 18.523438 C 1.984375 18.558594 2.007812 18.59375 2.015625 18.628906 C 2.027344 18.664062 2.035156 18.699219 2.050781 18.734375 L 6.679688 17.226562 Z M 6.648438 17.121094 " fill-opacity="1" fill-rule="nonzero"/></g><path fill="#00bf63" d="M 9.558594 17.296875 L 9.558594 11.742188 L 9.210938 11.742188 L 8.242188 12.082031 L 8.242188 12.449219 L 8.925781 12.449219 L 8.925781 17.296875 Z M 9.558594 17.296875 " fill-opacity="1" fill-rule="nonzero"/><path fill="#00bf63" d="M 10.769531 12.007812 C 10.550781 12.265625 10.449219 12.730469 10.449219 13.398438 L 10.449219 15.640625 C 10.449219 16.3125 10.554688 16.777344 10.769531 17.035156 C 10.890625 17.15625 11.03125 17.25 11.191406 17.320312 C 11.351562 17.386719 11.519531 17.417969 11.691406 17.417969 C 11.863281 17.417969 12.03125 17.386719 12.191406 17.320312 C 12.347656 17.25 12.488281 17.15625 12.609375 17.035156 C 12.824219 16.777344 12.933594 16.3125 12.933594 15.640625 L 12.933594 13.398438 C 12.933594 12.738281 12.824219 12.265625 12.609375 12.007812 C 12.488281 11.886719 12.347656 11.789062 12.191406 11.722656 C 12.03125 11.65625 11.863281 11.625 11.691406 11.625 C 11.519531 11.625 11.351562 11.65625 11.191406 11.722656 C 11.03125 11.789062 10.890625 11.886719 10.769531 12.007812 Z M 12.3125 13.28125 L 12.3125 15.757812 C 12.3125 16.519531 12.109375 16.902344 11.703125 16.902344 C 11.503906 16.90625 11.351562 16.824219 11.246094 16.65625 C 11.113281 16.371094 11.058594 16.070312 11.082031 15.757812 L 11.082031 13.28125 C 11.058594 12.96875 11.113281 12.667969 11.246094 12.386719 C 11.351562 12.214844 11.503906 12.132812 11.703125 12.140625 C 12.105469 12.140625 12.304688 12.519531 12.304688 13.28125 Z M 12.3125 13.28125 " fill-opacity="1" fill-rule="nonzero"/><path fill="#00bf63" d="M 14.953125 17.417969 C 15.324219 17.441406 15.628906 17.3125 15.875 17.03125 C 16.089844 16.777344 16.195312 16.3125 16.195312 15.636719 L 16.195312 13.398438 C 16.195312 12.738281 16.089844 12.265625 15.875 12.007812 C 15.753906 11.886719 15.613281 11.789062 15.453125 11.722656 C 15.292969 11.65625 15.125 11.625 14.953125 11.625 C 14.78125 11.625 14.613281 11.65625 14.453125 11.722656 C 14.292969 11.789062 14.152344 11.886719 14.03125 12.007812 C 13.8125 12.265625 13.710938 12.730469 13.710938 13.398438 L 13.710938 15.640625 C 13.710938 16.3125 13.816406 16.777344 14.03125 17.035156 C 14.277344 17.3125 14.582031 17.441406 14.953125 17.417969 Z M 14.335938 13.28125 C 14.3125 12.96875 14.367188 12.667969 14.5 12.386719 C 14.605469 12.214844 14.757812 12.132812 14.957031 12.140625 C 15.363281 12.140625 15.566406 12.519531 15.566406 13.28125 L 15.566406 15.757812 C 15.566406 16.519531 15.363281 16.902344 14.957031 16.902344 C 14.757812 16.90625 14.605469 16.824219 14.5 16.65625 C 14.367188 16.371094 14.3125 16.070312 14.335938 15.757812 Z M 14.335938 13.28125 " fill-opacity="1" fill-rule="nonzero"/><path fill="#00bf63" d="M 20.234375 11.621094 L 19.78125 11.621094 L 18.332031 17.417969 L 18.78125 17.417969 Z M 20.234375 11.621094 " fill-opacity="1" fill-rule="nonzero"/><path fill="#00bf63" d="M 17.734375 15.101562 C 17.976562 15.117188 18.183594 15.039062 18.355469 14.867188 C 18.503906 14.722656 18.578125 14.445312 18.578125 14.035156 L 18.578125 12.6875 C 18.578125 12.285156 18.503906 12.007812 18.355469 11.851562 C 18.175781 11.699219 17.96875 11.625 17.734375 11.625 C 17.5 11.625 17.289062 11.699219 17.113281 11.851562 C 16.964844 12.007812 16.890625 12.285156 16.890625 12.6875 L 16.890625 14.035156 C 16.890625 14.4375 16.964844 14.71875 17.113281 14.867188 C 17.285156 15.039062 17.492188 15.117188 17.734375 15.101562 Z M 17.398438 12.613281 C 17.398438 12.214844 17.511719 12.011719 17.734375 12.011719 C 17.960938 12.011719 18.074219 12.214844 18.074219 12.613281 L 18.074219 14.109375 C 18.074219 14.507812 17.960938 14.710938 17.734375 14.710938 C 17.511719 14.710938 17.398438 14.507812 17.398438 14.109375 Z M 17.398438 12.613281 " fill-opacity="1" fill-rule="nonzero"/><path fill="#00bf63" d="M 20.925781 17.417969 C 21.167969 17.433594 21.375 17.363281 21.550781 17.195312 C 21.695312 17.050781 21.769531 16.773438 21.769531 16.363281 L 21.769531 15.015625 C 21.769531 14.609375 21.695312 14.332031 21.550781 14.179688 C 21.371094 14.027344 21.164062 13.949219 20.925781 13.949219 C 20.691406 13.949219 20.484375 14.027344 20.304688 14.179688 C 20.15625 14.328125 20.082031 14.605469 20.082031 15.015625 L 20.082031 16.363281 C 20.082031 16.765625 20.15625 17.042969 20.304688 17.195312 C 20.480469 17.359375 20.6875 17.433594 20.925781 17.417969 Z M 20.585938 14.933594 C 20.585938 14.53125 20.699219 14.332031 20.921875 14.332031 C 21.148438 14.332031 21.261719 14.53125 21.261719 14.933594 L 21.261719 16.425781 C 21.261719 16.828125 21.148438 17.027344 20.921875 17.027344 C 20.699219 17.027344 20.585938 16.828125 20.585938 16.425781 Z M 20.585938 14.933594 " fill-opacity="1" fill-rule="nonzero"/></svg>