<svg xmlns="http://www.w3.org/2000/svg" xmlns:xlink="http://www.w3.org/1999/xlink" width="40" zoomAndPan="magnify" viewBox="0 0 30 30.000001" height="40" preserveAspectRatio="xMidYMid meet" version="1.0"><defs><clipPath id="d78e4a7534"><path d="M 2.371094 0.769531 L 27.773438 0.769531 L 27.773438 28.351562 L 2.371094 28.351562 Z M 2.371094 0.769531 " clip-rule="nonzero"/></clipPath></defs><g clip-path="url(#d78e4a7534)"><path fill="#ffffff" d="M 27.621094 19.003906 C 27.621094 16.371094 25.480469 14.234375 22.851562 14.234375 C 22.238281 14.234375 21.65625 14.355469 21.117188 14.566406 C 19.609375 13.339844 17.820312 12.519531 15.921875 12.175781 C 18.164062 11.339844 19.765625 9.1875 19.765625 6.660156 C 19.765625 3.410156 17.125 0.769531 13.875 0.769531 C 10.628906 0.769531 7.984375 3.410156 7.984375 6.660156 C 7.984375 9.191406 9.59375 11.347656 11.839844 12.179688 C 6.46875 13.144531 2.375 17.84375 2.375 23.492188 L 2.375 27.980469 C 2.375 28.132812 2.5 28.257812 2.65625 28.257812 C 2.808594 28.257812 2.9375 28.132812 2.9375 27.980469 L 2.9375 23.492188 C 2.9375 17.457031 7.84375 12.550781 13.875 12.550781 C 16.292969 12.550781 18.640625 13.363281 20.546875 14.832031 C 19.078125 15.644531 18.082031 17.210938 18.082031 19.003906 C 18.082031 21.632812 20.222656 23.769531 22.851562 23.769531 C 23.550781 23.769531 24.214844 23.617188 24.8125 23.34375 C 24.8125 23.394531 24.816406 23.441406 24.816406 23.492188 L 24.816406 27.980469 C 24.816406 28.132812 24.941406 28.257812 25.097656 28.257812 C 25.25 28.257812 25.375 28.132812 25.375 27.980469 L 25.375 23.492188 C 25.375 23.339844 25.371094 23.195312 25.363281 23.046875 C 26.714844 22.203125 27.621094 20.707031 27.621094 19.003906 Z M 8.546875 6.660156 C 8.546875 3.722656 10.9375 1.332031 13.875 1.332031 C 16.816406 1.332031 19.207031 3.722656 19.207031 6.660156 C 19.207031 9.597656 16.816406 11.988281 13.875 11.988281 C 10.9375 11.988281 8.546875 9.597656 8.546875 6.660156 Z M 22.851562 23.210938 C 20.53125 23.210938 18.644531 21.324219 18.644531 19.003906 C 18.644531 17.269531 19.695312 15.78125 21.191406 15.136719 C 21.199219 15.132812 21.203125 15.132812 21.207031 15.128906 C 21.714844 14.914062 22.269531 14.792969 22.851562 14.792969 C 25.171875 14.792969 27.058594 16.679688 27.058594 19 C 27.058594 21.320312 25.171875 23.210938 22.851562 23.210938 Z M 22.851562 23.210938 " fill-opacity="1" fill-rule="nonzero"/></g><path fill="#ffffff" d="M 24.535156 18.722656 L 23.132812 18.722656 L 23.132812 17.320312 C 23.132812 17.164062 23.007812 17.039062 22.851562 17.039062 C 22.699219 17.039062 22.570312 17.164062 22.570312 17.320312 L 22.570312 18.722656 L 21.167969 18.722656 C 21.015625 18.722656 20.886719 18.847656 20.886719 19.003906 C 20.886719 19.15625 21.015625 19.28125 21.167969 19.28125 L 22.570312 19.28125 L 22.570312 20.683594 C 22.570312 20.839844 22.699219 20.964844 22.851562 20.964844 C 23.007812 20.964844 23.132812 20.839844 23.132812 20.683594 L 23.132812 19.28125 L 24.535156 19.28125 C 24.691406 19.28125 24.816406 19.15625 24.816406 19.003906 C 24.816406 18.847656 24.691406 18.722656 24.535156 18.722656 Z M 24.535156 18.722656 " fill-opacity="1" fill-rule="nonzero"/></svg>