<svg xmlns="http://www.w3.org/2000/svg" xmlns:xlink="http://www.w3.org/1999/xlink" width="40" zoomAndPan="magnify" viewBox="0 0 30 30.000001" height="40" preserveAspectRatio="xMidYMid meet" version="1.0"><defs><clipPath id="04ce84a257"><path d="M 2.53125 0.960938 L 27.207031 0.960938 L 27.207031 27.816406 L 2.53125 27.816406 Z M 2.53125 0.960938 " clip-rule="nonzero"/></clipPath></defs><g clip-path="url(#04ce84a257)"><path fill="#ffffff" d="M 27.464844 18.851562 C 27.464844 16.160156 25.277344 13.972656 22.585938 13.972656 C 22.015625 13.972656 21.46875 14.074219 20.957031 14.257812 C 19.710938 13.273438 18.277344 12.5625 16.753906 12.167969 C 18.613281 11.15625 19.878906 9.183594 19.878906 6.925781 C 19.878906 3.636719 17.203125 0.960938 13.914062 0.960938 C 10.625 0.960938 7.953125 3.636719 7.953125 6.925781 C 7.953125 9.191406 9.222656 11.164062 11.085938 12.171875 C 6.175781 13.433594 2.53125 17.886719 2.53125 23.1875 L 2.53125 27.523438 C 2.53125 27.824219 2.773438 28.066406 3.074219 28.066406 C 3.371094 28.066406 3.613281 27.824219 3.613281 27.523438 L 3.613281 23.1875 C 3.613281 17.507812 8.234375 12.886719 13.914062 12.886719 C 16.058594 12.886719 18.144531 13.5625 19.878906 14.792969 C 18.570312 15.671875 17.707031 17.160156 17.707031 18.851562 C 17.707031 21.539062 19.898438 23.730469 22.585938 23.730469 C 23.160156 23.730469 23.703125 23.625 24.214844 23.445312 L 24.214844 27.523438 C 24.214844 27.824219 24.457031 28.066406 24.757812 28.066406 C 25.054688 28.066406 25.296875 27.824219 25.296875 27.523438 L 25.296875 23.1875 C 25.296875 23.09375 25.292969 23 25.289062 22.90625 C 26.601562 22.03125 27.464844 20.539062 27.464844 18.851562 Z M 9.035156 6.925781 C 9.035156 4.234375 11.222656 2.046875 13.914062 2.046875 C 16.605469 2.046875 18.792969 4.234375 18.792969 6.925781 C 18.792969 9.613281 16.605469 11.804688 13.914062 11.804688 C 11.222656 11.804688 9.035156 9.613281 9.035156 6.925781 Z M 18.792969 18.851562 C 18.792969 17.28125 19.75 15.933594 21.109375 15.355469 C 21.113281 15.355469 21.117188 15.351562 21.121094 15.351562 C 21.574219 15.160156 22.066406 15.054688 22.585938 15.054688 C 24.679688 15.054688 26.382812 16.757812 26.382812 18.851562 C 26.382812 20.941406 24.679688 22.644531 22.585938 22.644531 C 20.496094 22.644531 18.792969 20.941406 18.792969 18.851562 Z M 18.792969 18.851562 " fill-opacity="1" fill-rule="nonzero"/></g><path fill="#ffffff" d="M 23.960938 17.171875 C 23.707031 17.011719 23.371094 17.089844 23.210938 17.34375 L 21.980469 19.304688 L 21.480469 18.804688 C 21.269531 18.59375 20.925781 18.59375 20.714844 18.804688 C 20.5 19.015625 20.5 19.359375 20.714844 19.570312 L 21.695312 20.554688 C 21.710938 20.566406 21.730469 20.574219 21.746094 20.585938 C 21.761719 20.601562 21.773438 20.617188 21.789062 20.628906 C 21.808594 20.640625 21.828125 20.648438 21.847656 20.65625 C 21.863281 20.664062 21.878906 20.671875 21.898438 20.675781 C 21.957031 20.699219 22.015625 20.710938 22.078125 20.710938 C 22.140625 20.710938 22.203125 20.699219 22.257812 20.679688 C 22.273438 20.671875 22.285156 20.667969 22.300781 20.660156 C 22.355469 20.636719 22.410156 20.601562 22.457031 20.558594 C 22.457031 20.554688 22.460938 20.554688 22.460938 20.554688 C 22.464844 20.550781 22.46875 20.542969 22.472656 20.539062 C 22.496094 20.511719 22.519531 20.488281 22.539062 20.460938 L 24.132812 17.917969 C 24.289062 17.664062 24.214844 17.328125 23.960938 17.171875 Z M 23.960938 17.171875 " fill-opacity="1" fill-rule="nonzero"/><path fill="#ffffff" d="M 13.914062 16.140625 C 13.613281 16.140625 13.371094 16.382812 13.371094 16.679688 L 13.371094 17.765625 C 13.371094 18.066406 13.613281 18.308594 13.914062 18.308594 C 14.214844 18.308594 14.457031 18.066406 14.457031 17.765625 L 14.457031 16.679688 C 14.457031 16.382812 14.214844 16.140625 13.914062 16.140625 Z M 13.914062 16.140625 " fill-opacity="1" fill-rule="nonzero"/><path fill="#ffffff" d="M 13.914062 20.476562 C 13.613281 20.476562 13.371094 20.71875 13.371094 21.019531 L 13.371094 26.4375 C 13.371094 26.738281 13.613281 26.980469 13.914062 26.980469 C 14.214844 26.980469 14.457031 26.738281 14.457031 26.4375 L 14.457031 21.019531 C 14.457031 20.71875 14.214844 20.476562 13.914062 20.476562 Z M 13.914062 20.476562 " fill-opacity="1" fill-rule="nonzero"/></svg>