<svg xmlns="http://www.w3.org/2000/svg" xmlns:xlink="http://www.w3.org/1999/xlink" width="40" zoomAndPan="magnify" viewBox="0 0 30 30.000001" height="40" preserveAspectRatio="xMidYMid meet" version="1.0"><defs><clipPath id="896fa14847"><path d="M 1.210938 0.726562 L 28.789062 0.726562 L 28.789062 28.304688 L 1.210938 28.304688 Z M 1.210938 0.726562 " clip-rule="nonzero"/></clipPath></defs><path fill="#21b86e" d="M 27.703125 14.515625 C 27.703125 21.53125 22.015625 27.222656 15 27.222656 C 7.984375 27.222656 2.296875 21.53125 2.296875 14.515625 C 2.296875 7.5 7.984375 1.8125 15 1.8125 C 22.015625 1.8125 27.703125 7.5 27.703125 14.515625 " fill-opacity="1" fill-rule="nonzero"/><g clip-path="url(#896fa14847)"><path fill="#21b86e" d="M 15 2.898438 C 13.429688 2.898438 11.910156 3.203125 10.476562 3.808594 C 9.09375 4.394531 7.851562 5.234375 6.785156 6.300781 C 5.71875 7.367188 4.878906 8.609375 4.292969 9.992188 C 3.6875 11.425781 3.382812 12.945312 3.382812 14.515625 C 3.382812 16.085938 3.6875 17.605469 4.292969 19.039062 C 4.878906 20.421875 5.71875 21.664062 6.785156 22.730469 C 7.851562 23.800781 9.09375 24.636719 10.476562 25.222656 C 11.910156 25.828125 13.429688 26.132812 15 26.132812 C 16.570312 26.132812 18.089844 25.828125 19.523438 25.222656 C 20.90625 24.636719 22.148438 23.800781 23.214844 22.730469 C 24.28125 21.664062 25.121094 20.421875 25.707031 19.039062 C 26.3125 17.605469 26.617188 16.085938 26.617188 14.515625 C 26.617188 12.945312 26.3125 11.425781 25.707031 9.992188 C 25.121094 8.609375 24.28125 7.367188 23.214844 6.300781 C 22.148438 5.234375 20.90625 4.394531 19.523438 3.808594 C 18.089844 3.203125 16.570312 2.898438 15 2.898438 Z M 15 28.304688 C 13.140625 28.304688 11.332031 27.941406 9.632812 27.222656 C 7.988281 26.527344 6.515625 25.535156 5.25 24.265625 C 3.984375 23 2.988281 21.527344 2.292969 19.882812 C 1.574219 18.183594 1.210938 16.378906 1.210938 14.515625 C 1.210938 12.65625 1.574219 10.847656 2.292969 9.148438 C 2.988281 7.503906 3.984375 6.03125 5.25 4.765625 C 6.515625 3.5 7.988281 2.503906 9.632812 1.808594 C 11.332031 1.089844 13.140625 0.726562 15 0.726562 C 16.859375 0.726562 18.667969 1.089844 20.367188 1.808594 C 22.011719 2.503906 23.484375 3.5 24.75 4.765625 C 26.015625 6.03125 27.011719 7.503906 27.707031 9.148438 C 28.425781 10.847656 28.789062 12.65625 28.789062 14.515625 C 28.789062 16.378906 28.425781 18.183594 27.707031 19.882812 C 27.011719 21.527344 26.015625 23 24.75 24.265625 C 23.484375 25.535156 22.011719 26.527344 20.367188 27.222656 C 18.667969 27.941406 16.859375 28.304688 15 28.304688 " fill-opacity="1" fill-rule="nonzero"/></g><path fill="#ffffff" d="M 21.730469 9.382812 C 21.394531 9.109375 20.96875 8.980469 20.535156 9.023438 C 20.101562 9.066406 19.710938 9.273438 19.433594 9.609375 L 14.03125 16.1875 L 11.671875 13.78125 C 11.367188 13.472656 10.960938 13.296875 10.523438 13.292969 C 10.085938 13.289062 9.675781 13.453125 9.367188 13.761719 C 8.722656 14.390625 8.714844 15.425781 9.34375 16.066406 L 12.976562 19.769531 C 13.28125 20.078125 13.707031 20.257812 14.140625 20.257812 C 14.164062 20.257812 14.191406 20.257812 14.214844 20.257812 C 14.675781 20.234375 15.109375 20.019531 15.402344 19.660156 L 21.957031 11.679688 C 22.527344 10.984375 22.425781 9.957031 21.730469 9.382812 " fill-opacity="1" fill-rule="nonzero"/></svg>