<svg xmlns="http://www.w3.org/2000/svg" xmlns:xlink="http://www.w3.org/1999/xlink" width="40" zoomAndPan="magnify" viewBox="0 0 30 30.000001" height="40" preserveAspectRatio="xMidYMid meet" version="1.0"><defs><clipPath id="d4322df014"><path d="M 1.863281 3 L 26 3 L 26 27.507812 L 1.863281 27.507812 Z M 1.863281 3 " clip-rule="nonzero"/></clipPath><clipPath id="58016b9f65"><path d="M 8 1.378906 L 27.992188 1.378906 L 27.992188 21 L 8 21 Z M 8 1.378906 " clip-rule="nonzero"/></clipPath></defs><g clip-path="url(#d4322df014)"><path fill="#ffffff" d="M 7.449219 3.695312 C 4.402344 3.695312 1.925781 6.179688 1.925781 9.21875 L 1.925781 22.105469 C 1.925781 25.152344 4.402344 27.628906 7.449219 27.628906 L 20.335938 27.628906 C 23.378906 27.628906 25.859375 25.152344 25.859375 22.105469 L 25.859375 16.582031 C 25.859375 16.074219 25.445312 15.664062 24.9375 15.664062 C 24.429688 15.664062 24.015625 16.074219 24.015625 16.582031 L 24.015625 22.105469 C 24.015625 24.164062 22.390625 25.789062 20.335938 25.789062 L 7.449219 25.789062 C 5.394531 25.789062 3.765625 24.164062 3.765625 22.105469 L 3.765625 9.21875 C 3.765625 7.167969 5.394531 5.539062 7.449219 5.539062 L 12.96875 5.539062 C 13.480469 5.539062 13.890625 5.125 13.890625 4.617188 C 13.890625 4.109375 13.480469 3.695312 12.96875 3.695312 Z M 7.449219 3.695312 " fill-opacity="1" fill-rule="nonzero"/></g><g clip-path="url(#58016b9f65)"><path fill="#ffffff" d="M 20.632812 3.0625 L 9.949219 13.746094 C 9.804688 13.890625 9.714844 14.078125 9.691406 14.273438 L 8.992188 19.414062 C 8.910156 20.007812 9.40625 20.515625 10.007812 20.453125 L 15.257812 19.867188 C 15.46875 19.84375 15.660156 19.753906 15.808594 19.605469 L 26.492188 8.925781 C 28.101562 7.3125 28.101562 4.679688 26.492188 3.0625 C 24.90625 1.414062 22.179688 1.5625 20.632812 3.0625 Z M 25.1875 4.367188 C 26.097656 5.277344 26.097656 6.707031 25.1875 7.625 L 24.207031 8.601562 L 20.957031 5.347656 L 21.929688 4.367188 C 23 3.296875 24.320312 3.5 25.1875 4.367188 Z M 19.652344 6.644531 L 22.910156 9.902344 L 14.734375 18.074219 L 10.976562 18.492188 L 11.46875 14.828125 Z M 19.652344 6.644531 " fill-opacity="1" fill-rule="nonzero"/></g></svg>