<svg xmlns="http://www.w3.org/2000/svg" xmlns:xlink="http://www.w3.org/1999/xlink" width="40" zoomAndPan="magnify" viewBox="0 0 30 30.000001" height="40" preserveAspectRatio="xMidYMid meet" version="1.0"><defs><clipPath id="86d14a9e4b"><path d="M 1.28125 3.746094 L 26 3.746094 L 26 21 L 1.28125 21 Z M 1.28125 3.746094 " clip-rule="nonzero"/></clipPath><clipPath id="4b472d365a"><path d="M 1.28125 9 L 26 9 L 26 21 L 1.28125 21 Z M 1.28125 9 " clip-rule="nonzero"/></clipPath><clipPath id="f993478d8b"><path d="M 17 14 L 28.863281 14 L 28.863281 25.523438 L 17 25.523438 Z M 17 14 " clip-rule="nonzero"/></clipPath><clipPath id="7374fcedde"><path d="M 1.28125 3.746094 L 26 3.746094 L 26 14 L 1.28125 14 Z M 1.28125 3.746094 " clip-rule="nonzero"/></clipPath><clipPath id="c3011a8bc8"><path d="M 2 3.746094 L 25 3.746094 L 25 13 L 2 13 Z M 2 3.746094 " clip-rule="nonzero"/></clipPath></defs><g clip-path="url(#86d14a9e4b)"><path fill="#ffd54f" d="M 4.710938 3.746094 L 22.453125 3.746094 C 22.90625 3.746094 23.34375 3.835938 23.761719 4.007812 C 24.179688 4.179688 24.550781 4.429688 24.867188 4.75 C 25.1875 5.070312 25.4375 5.4375 25.609375 5.855469 C 25.78125 6.273438 25.871094 6.710938 25.871094 7.164062 L 25.871094 17.347656 C 25.871094 17.800781 25.78125 18.234375 25.609375 18.652344 C 25.4375 19.070312 25.1875 19.441406 24.867188 19.761719 C 24.550781 20.082031 24.179688 20.328125 23.761719 20.5 C 23.34375 20.675781 22.90625 20.761719 22.453125 20.761719 L 4.710938 20.761719 C 4.257812 20.761719 3.820312 20.675781 3.402344 20.5 C 2.984375 20.328125 2.613281 20.082031 2.292969 19.761719 C 1.972656 19.441406 1.726562 19.070312 1.554688 18.652344 C 1.378906 18.234375 1.292969 17.800781 1.292969 17.347656 L 1.292969 7.164062 C 1.292969 6.710938 1.378906 6.273438 1.554688 5.855469 C 1.726562 5.4375 1.972656 5.070312 2.292969 4.75 C 2.613281 4.429688 2.984375 4.179688 3.402344 4.007812 C 3.820312 3.835938 4.257812 3.746094 4.710938 3.746094 Z M 4.710938 3.746094 " fill-opacity="1" fill-rule="nonzero"/></g><g clip-path="url(#4b472d365a)"><path fill="#ffc107" d="M 25.535156 18.8125 L 16.371094 10.976562 C 15.984375 10.636719 15.550781 10.378906 15.070312 10.195312 C 14.589844 10.015625 14.09375 9.925781 13.578125 9.925781 C 13.0625 9.925781 12.566406 10.015625 12.085938 10.199219 C 11.605469 10.378906 11.171875 10.640625 10.785156 10.980469 L 1.71875 18.996094 C 2.019531 19.539062 2.4375 19.972656 2.972656 20.289062 C 3.507812 20.605469 4.085938 20.761719 4.710938 20.761719 L 22.453125 20.761719 C 23.113281 20.761719 23.71875 20.585938 24.277344 20.234375 C 24.832031 19.882812 25.253906 19.40625 25.535156 18.8125 Z M 25.535156 18.8125 " fill-opacity="1" fill-rule="nonzero"/></g><path fill="#ffd54f" d="M 25.011719 19.609375 C 24.691406 19.976562 24.304688 20.261719 23.859375 20.460938 C 23.414062 20.664062 22.949219 20.761719 22.457031 20.761719 L 4.703125 20.761719 C 3.757812 20.765625 2.953125 20.429688 2.289062 19.753906 L 11.414062 11.691406 C 11.710938 11.425781 12.046875 11.222656 12.421875 11.082031 C 12.796875 10.941406 13.183594 10.871094 13.582031 10.871094 C 13.980469 10.871094 14.367188 10.941406 14.742188 11.082031 C 15.113281 11.222656 15.453125 11.425781 15.75 11.691406 Z M 25.011719 19.609375 " fill-opacity="1" fill-rule="nonzero"/><path fill="#ffc107" d="M 23.035156 13.199219 C 22.558594 13.195312 22.089844 13.242188 21.625 13.34375 C 21.160156 13.441406 20.710938 13.589844 20.277344 13.785156 C 19.84375 13.980469 19.4375 14.21875 19.054688 14.503906 C 18.675781 14.789062 18.328125 15.109375 18.015625 15.46875 C 17.707031 15.832031 17.4375 16.21875 17.210938 16.636719 C 16.984375 17.054688 16.804688 17.492188 16.675781 17.949219 C 16.542969 18.40625 16.460938 18.871094 16.429688 19.34375 C 16.398438 19.820312 16.421875 20.292969 16.492188 20.761719 L 22.453125 20.761719 C 22.90625 20.761719 23.34375 20.675781 23.761719 20.5 C 24.179688 20.328125 24.550781 20.082031 24.867188 19.761719 C 25.1875 19.441406 25.4375 19.070312 25.609375 18.652344 C 25.78125 18.234375 25.871094 17.800781 25.871094 17.347656 L 25.871094 13.851562 C 24.972656 13.417969 24.027344 13.203125 23.035156 13.199219 Z M 23.035156 13.199219 " fill-opacity="1" fill-rule="nonzero"/><g clip-path="url(#f993478d8b)"><path fill="#f3f5f9" d="M 28.707031 19.816406 C 28.707031 20.1875 28.667969 20.558594 28.597656 20.921875 C 28.523438 21.289062 28.417969 21.644531 28.273438 21.988281 C 28.132812 22.332031 27.957031 22.65625 27.75 22.96875 C 27.542969 23.277344 27.308594 23.5625 27.042969 23.828125 C 26.78125 24.089844 26.496094 24.324219 26.183594 24.53125 C 25.875 24.738281 25.546875 24.914062 25.203125 25.054688 C 24.859375 25.199219 24.503906 25.304688 24.140625 25.378906 C 23.773438 25.453125 23.40625 25.488281 23.035156 25.488281 C 22.660156 25.488281 22.292969 25.453125 21.925781 25.378906 C 21.5625 25.304688 21.207031 25.199219 20.863281 25.054688 C 20.519531 24.914062 20.191406 24.738281 19.882812 24.53125 C 19.574219 24.324219 19.285156 24.089844 19.023438 23.828125 C 18.761719 23.5625 18.523438 23.277344 18.320312 22.96875 C 18.113281 22.65625 17.9375 22.332031 17.792969 21.988281 C 17.652344 21.644531 17.542969 21.289062 17.472656 20.921875 C 17.398438 20.558594 17.363281 20.1875 17.363281 19.816406 C 17.363281 19.445312 17.398438 19.074219 17.472656 18.710938 C 17.542969 18.34375 17.652344 17.992188 17.792969 17.644531 C 17.9375 17.300781 18.113281 16.976562 18.320312 16.664062 C 18.523438 16.355469 18.761719 16.070312 19.023438 15.804688 C 19.285156 15.542969 19.574219 15.308594 19.882812 15.101562 C 20.191406 14.894531 20.519531 14.71875 20.863281 14.578125 C 21.207031 14.433594 21.5625 14.328125 21.925781 14.253906 C 22.292969 14.179688 22.660156 14.144531 23.035156 14.144531 C 23.40625 14.144531 23.773438 14.179688 24.140625 14.253906 C 24.503906 14.328125 24.859375 14.433594 25.203125 14.578125 C 25.546875 14.71875 25.875 14.894531 26.183594 15.101562 C 26.496094 15.308594 26.78125 15.542969 27.042969 15.804688 C 27.308594 16.070312 27.542969 16.355469 27.75 16.664062 C 27.957031 16.976562 28.132812 17.300781 28.273438 17.644531 C 28.417969 17.992188 28.523438 18.34375 28.597656 18.710938 C 28.667969 19.074219 28.707031 19.445312 28.707031 19.816406 Z M 28.707031 19.816406 " fill-opacity="1" fill-rule="nonzero"/></g><g clip-path="url(#7374fcedde)"><path fill="#ffc107" d="M 22.453125 3.746094 L 4.710938 3.746094 C 4.128906 3.746094 3.585938 3.886719 3.078125 4.164062 C 2.570312 4.441406 2.15625 4.820312 1.84375 5.308594 L 10.777344 12.882812 C 11.171875 13.214844 11.605469 13.46875 12.089844 13.644531 C 12.570312 13.824219 13.066406 13.910156 13.582031 13.910156 C 14.09375 13.910156 14.589844 13.824219 15.074219 13.644531 C 15.554688 13.46875 15.992188 13.214844 16.382812 12.882812 L 25.320312 5.308594 C 25.003906 4.820312 24.59375 4.441406 24.085938 4.164062 C 23.578125 3.886719 23.03125 3.746094 22.453125 3.746094 Z M 22.453125 3.746094 " fill-opacity="1" fill-rule="nonzero"/></g><g clip-path="url(#c3011a8bc8)"><path fill="#ffd54f" d="M 24.703125 4.589844 L 15.773438 12.164062 C 15.464844 12.421875 15.125 12.621094 14.75 12.757812 C 14.371094 12.898438 13.984375 12.96875 13.582031 12.96875 C 13.179688 12.96875 12.792969 12.898438 12.414062 12.757812 C 12.039062 12.621094 11.695312 12.421875 11.390625 12.164062 L 2.457031 4.589844 C 3.101562 4.027344 3.851562 3.746094 4.703125 3.746094 L 22.457031 3.746094 C 23.3125 3.746094 24.0625 4.027344 24.703125 4.589844 Z M 24.703125 4.589844 " fill-opacity="1" fill-rule="nonzero"/></g><path fill="#004aad" d="M 19.253906 19.019531 L 22.5625 20.289062 L 23.832031 23.597656 L 25.871094 16.980469 Z M 19.253906 19.019531 " fill-opacity="1" fill-rule="nonzero"/><path fill="#ffffff" d="M 3.183594 8 C 3.316406 8 3.425781 8.046875 3.519531 8.140625 C 3.609375 8.230469 3.65625 8.34375 3.65625 8.472656 L 3.65625 10.363281 C 3.65625 10.496094 3.609375 10.605469 3.519531 10.699219 C 3.425781 10.789062 3.316406 10.835938 3.183594 10.835938 C 3.054688 10.835938 2.941406 10.789062 2.851562 10.699219 C 2.757812 10.605469 2.710938 10.496094 2.710938 10.363281 L 2.710938 8.472656 C 2.710938 8.34375 2.757812 8.230469 2.851562 8.140625 C 2.941406 8.046875 3.054688 8 3.183594 8 Z M 3.183594 8 " fill-opacity="1" fill-rule="nonzero"/><path fill="#ffffff" d="M 3.65625 12.253906 C 3.65625 12.386719 3.609375 12.496094 3.519531 12.589844 C 3.425781 12.679688 3.316406 12.726562 3.183594 12.726562 C 3.054688 12.726562 2.941406 12.679688 2.851562 12.589844 C 2.757812 12.496094 2.710938 12.386719 2.710938 12.253906 C 2.710938 12.125 2.757812 12.011719 2.851562 11.921875 C 2.941406 11.828125 3.054688 11.78125 3.183594 11.78125 C 3.316406 11.78125 3.425781 11.828125 3.519531 11.921875 C 3.609375 12.011719 3.65625 12.125 3.65625 12.253906 Z M 3.65625 12.253906 " fill-opacity="1" fill-rule="nonzero"/></svg>