<svg xmlns="http://www.w3.org/2000/svg" xmlns:xlink="http://www.w3.org/1999/xlink" width="40" zoomAndPan="magnify" viewBox="0 0 30 30.000001" height="40" preserveAspectRatio="xMidYMid meet" version="1.0"><defs><clipPath id="6d36d83f3c"><path d="M 2.496094 0.925781 L 27.175781 0.925781 L 27.175781 27.78125 L 2.496094 27.78125 Z M 2.496094 0.925781 " clip-rule="nonzero"/></clipPath></defs><g clip-path="url(#6d36d83f3c)"><path fill="#ffffff" d="M 27.492188 18.859375 C 27.492188 16.164062 25.300781 13.96875 22.601562 13.96875 C 22.027344 13.96875 21.480469 14.074219 20.96875 14.253906 C 19.71875 13.269531 18.28125 12.554688 16.753906 12.160156 C 18.617188 11.148438 19.886719 9.171875 19.886719 6.90625 C 19.886719 3.609375 17.203125 0.929688 13.910156 0.929688 C 10.613281 0.929688 7.929688 3.609375 7.929688 6.90625 C 7.929688 9.175781 9.203125 11.15625 11.074219 12.167969 C 6.152344 13.429688 2.496094 17.894531 2.496094 23.207031 L 2.496094 27.554688 C 2.496094 27.855469 2.742188 28.097656 3.039062 28.097656 C 3.339844 28.097656 3.585938 27.855469 3.585938 27.554688 L 3.585938 23.207031 C 3.585938 17.511719 8.214844 12.882812 13.910156 12.882812 C 16.054688 12.882812 18.148438 13.558594 19.886719 14.792969 C 18.578125 15.671875 17.710938 17.167969 17.710938 18.859375 C 17.710938 21.554688 19.90625 23.75 22.601562 23.75 C 23.175781 23.75 23.722656 23.644531 24.230469 23.464844 L 24.230469 27.554688 C 24.230469 27.855469 24.476562 28.097656 24.777344 28.097656 C 25.074219 28.097656 25.320312 27.855469 25.320312 27.554688 L 25.320312 23.207031 C 25.320312 23.113281 25.3125 23.019531 25.3125 22.925781 C 26.625 22.050781 27.492188 20.554688 27.492188 18.859375 Z M 9.019531 6.90625 C 9.019531 4.210938 11.210938 2.015625 13.910156 2.015625 C 16.605469 2.015625 18.796875 4.210938 18.796875 6.90625 C 18.796875 9.601562 16.605469 11.796875 13.910156 11.796875 C 11.210938 11.796875 9.019531 9.601562 9.019531 6.90625 Z M 18.796875 18.859375 C 18.796875 17.289062 19.757812 15.9375 21.121094 15.359375 C 21.125 15.355469 21.128906 15.355469 21.132812 15.351562 C 21.585938 15.160156 22.082031 15.054688 22.601562 15.054688 C 24.699219 15.054688 26.40625 16.761719 26.40625 18.859375 C 26.40625 20.957031 24.699219 22.664062 22.601562 22.664062 C 20.503906 22.664062 18.796875 20.957031 18.796875 18.859375 Z M 18.796875 18.859375 " fill-opacity="1" fill-rule="nonzero"/></g><path fill="#ffffff" d="M 24.140625 17.324219 C 23.925781 17.109375 23.582031 17.109375 23.371094 17.324219 L 22.601562 18.089844 L 21.832031 17.324219 C 21.621094 17.109375 21.277344 17.109375 21.066406 17.324219 C 20.851562 17.535156 20.851562 17.878906 21.066406 18.089844 L 21.832031 18.859375 L 21.066406 19.628906 C 20.851562 19.839844 20.851562 20.183594 21.066406 20.394531 C 21.171875 20.503906 21.308594 20.554688 21.449219 20.554688 C 21.589844 20.554688 21.726562 20.503906 21.832031 20.394531 L 22.601562 19.628906 L 23.371094 20.394531 C 23.476562 20.503906 23.617188 20.554688 23.753906 20.554688 C 23.894531 20.554688 24.03125 20.503906 24.140625 20.394531 C 24.351562 20.183594 24.351562 19.839844 24.140625 19.628906 L 23.371094 18.859375 L 24.140625 18.089844 C 24.351562 17.878906 24.351562 17.535156 24.140625 17.324219 Z M 24.140625 17.324219 " fill-opacity="1" fill-rule="nonzero"/></svg>