<svg xmlns="http://www.w3.org/2000/svg" xmlns:xlink="http://www.w3.org/1999/xlink" width="40" zoomAndPan="magnify" viewBox="0 0 30 30.000001" height="40" preserveAspectRatio="xMidYMid meet" version="1.0"><defs><clipPath id="2ebd81c77c"><path d="M 1.136719 0.652344 L 28.71875 0.652344 L 28.71875 28.234375 L 1.136719 28.234375 Z M 1.136719 0.652344 " clip-rule="nonzero"/></clipPath></defs><path fill="#0174be" d="M 14.996094 13.441406 C 14.550781 13.441406 14.125 13.355469 13.71875 13.1875 C 13.308594 13.019531 12.949219 12.777344 12.632812 12.464844 C 12.320312 12.152344 12.078125 11.789062 11.910156 11.378906 C 11.742188 10.972656 11.65625 10.546875 11.65625 10.101562 C 11.65625 9.660156 11.742188 9.234375 11.910156 8.824219 C 12.078125 8.417969 12.320312 8.054688 12.632812 7.742188 C 12.949219 7.429688 13.308594 7.1875 13.71875 7.019531 C 14.125 6.847656 14.550781 6.765625 14.996094 6.765625 C 19.425781 6.945312 19.425781 13.261719 14.996094 13.441406 Z M 14.996094 13.441406 " fill-opacity="1" fill-rule="nonzero"/><path fill="#0174be" d="M 22.207031 20.035156 C 22.207031 20.328125 22.148438 20.613281 22.035156 20.886719 C 21.925781 21.15625 21.761719 21.398438 21.554688 21.609375 C 21.34375 21.816406 21.105469 21.976562 20.832031 22.089844 C 20.558594 22.203125 20.273438 22.257812 19.980469 22.257812 L 10.011719 22.257812 C 9.714844 22.257812 9.429688 22.203125 9.160156 22.089844 C 8.886719 21.976562 8.644531 21.816406 8.4375 21.609375 C 8.226562 21.398438 8.066406 21.15625 7.953125 20.886719 C 7.839844 20.613281 7.785156 20.328125 7.785156 20.035156 C 7.785156 16.902344 11.019531 14.351562 14.996094 14.351562 C 18.972656 14.351562 22.207031 16.902344 22.207031 20.035156 Z M 22.207031 20.035156 " fill-opacity="1" fill-rule="nonzero"/><g clip-path="url(#2ebd81c77c)"><path fill="#0174be" d="M 14.996094 0.652344 C 14.085938 0.652344 13.183594 0.742188 12.292969 0.917969 C 11.398438 1.097656 10.53125 1.359375 9.691406 1.707031 C 8.851562 2.054688 8.054688 2.484375 7.296875 2.988281 C 6.539062 3.496094 5.839844 4.070312 5.195312 4.710938 C 4.550781 5.355469 3.976562 6.054688 3.472656 6.8125 C 2.96875 7.570312 2.539062 8.367188 2.191406 9.207031 C 1.84375 10.050781 1.582031 10.914062 1.402344 11.808594 C 1.226562 12.699219 1.136719 13.601562 1.136719 14.511719 C 1.136719 15.421875 1.226562 16.324219 1.402344 17.214844 C 1.582031 18.109375 1.84375 18.972656 2.191406 19.816406 C 2.539062 20.65625 2.96875 21.453125 3.472656 22.210938 C 3.976562 22.96875 4.550781 23.667969 5.195312 24.3125 C 5.839844 24.953125 6.539062 25.527344 7.296875 26.035156 C 8.054688 26.539062 8.851562 26.96875 9.691406 27.316406 C 10.53125 27.664062 11.398438 27.925781 12.292969 28.105469 C 13.183594 28.28125 14.085938 28.371094 14.996094 28.371094 C 15.90625 28.371094 16.804688 28.28125 17.699219 28.105469 C 18.589844 27.925781 19.457031 27.664062 20.300781 27.316406 C 21.140625 26.96875 21.9375 26.539062 22.695312 26.035156 C 23.453125 25.527344 24.152344 24.953125 24.792969 24.3125 C 25.4375 23.667969 26.011719 22.96875 26.519531 22.210938 C 27.023438 21.453125 27.449219 20.65625 27.800781 19.816406 C 28.148438 18.972656 28.410156 18.109375 28.585938 17.214844 C 28.765625 16.324219 28.855469 15.421875 28.855469 14.511719 C 28.855469 13.601562 28.765625 12.699219 28.585938 11.808594 C 28.410156 10.914062 28.148438 10.050781 27.796875 9.207031 C 27.449219 8.367188 27.023438 7.570312 26.519531 6.8125 C 26.011719 6.054688 25.4375 5.355469 24.792969 4.710938 C 24.152344 4.070312 23.449219 3.496094 22.695312 2.988281 C 21.9375 2.484375 21.140625 2.058594 20.296875 1.707031 C 19.457031 1.359375 18.589844 1.097656 17.699219 0.917969 C 16.804688 0.742188 15.90625 0.652344 14.996094 0.652344 Z M 19.980469 23.171875 L 10.011719 23.171875 C 9.59375 23.171875 9.195312 23.09375 8.808594 22.933594 C 8.425781 22.773438 8.085938 22.546875 7.792969 22.253906 C 7.496094 21.957031 7.269531 21.617188 7.109375 21.234375 C 6.949219 20.851562 6.871094 20.449219 6.871094 20.035156 C 6.871094 17.03125 9.355469 14.496094 12.742188 13.703125 C 9.171875 11.445312 10.710938 5.894531 14.996094 5.851562 C 19.277344 5.890625 20.820312 11.449219 17.246094 13.703125 C 20.632812 14.496094 23.121094 17.03125 23.121094 20.035156 C 23.121094 20.449219 23.039062 20.851562 22.878906 21.234375 C 22.722656 21.617188 22.492188 21.957031 22.199219 22.253906 C 21.90625 22.546875 21.566406 22.773438 21.179688 22.933594 C 20.796875 23.09375 20.394531 23.171875 19.980469 23.171875 Z M 19.980469 23.171875 " fill-opacity="1" fill-rule="nonzero"/></g></svg>