<svg xmlns="http://www.w3.org/2000/svg" xmlns:xlink="http://www.w3.org/1999/xlink" width="40" zoomAndPan="magnify" viewBox="0 0 30 30.000001" height="40" preserveAspectRatio="xMidYMid meet" version="1.0"><defs><clipPath id="d9aa1f7a6e"><path d="M 1.210938 0.726562 L 28.789062 0.726562 L 28.789062 28.304688 L 1.210938 28.304688 Z M 1.210938 0.726562 " clip-rule="nonzero"/></clipPath></defs><g clip-path="url(#d9aa1f7a6e)"><path fill="#0174be" d="M 28.789062 14.515625 C 28.789062 6.902344 22.613281 0.726562 15 0.726562 C 7.386719 0.726562 1.210938 6.902344 1.210938 14.515625 C 1.210938 22.132812 7.386719 28.304688 15 28.304688 C 22.613281 28.304688 28.789062 22.132812 28.789062 14.515625 Z M 28.789062 14.515625 " fill-opacity="1" fill-rule="nonzero"/></g><path fill="#ffffff" d="M 23.90625 15.589844 L 23.90625 13.445312 L 21.871094 12.804688 C 21.699219 12.113281 21.425781 11.464844 21.0625 10.871094 L 22.054688 8.972656 L 20.535156 7.457031 L 18.636719 8.445312 C 18.046875 8.089844 17.402344 7.824219 16.710938 7.652344 L 16.066406 5.605469 L 13.917969 5.605469 L 13.269531 7.652344 C 12.585938 7.824219 11.9375 8.089844 11.347656 8.445312 L 9.464844 7.457031 L 7.941406 8.980469 L 8.929688 10.875 C 8.574219 11.46875 8.296875 12.113281 8.125 12.808594 L 6.089844 13.449219 L 6.089844 15.59375 L 8.113281 16.234375 C 8.285156 16.929688 8.558594 17.585938 8.917969 18.183594 L 7.941406 20.050781 L 9.457031 21.570312 L 11.332031 20.589844 C 11.933594 20.953125 12.59375 21.230469 13.292969 21.402344 L 13.925781 23.414062 L 16.078125 23.414062 L 16.710938 21.402344 C 17.414062 21.230469 18.066406 20.953125 18.675781 20.589844 L 20.546875 21.570312 L 22.066406 20.050781 L 21.085938 18.171875 C 21.449219 17.574219 21.71875 16.917969 21.890625 16.222656 Z M 15 19.230469 C 12.402344 19.230469 10.296875 17.121094 10.296875 14.527344 C 10.296875 11.929688 12.402344 9.824219 15 9.824219 C 17.597656 9.824219 19.695312 11.929688 19.695312 14.527344 C 19.695312 17.128906 17.597656 19.230469 15 19.230469 Z M 15 19.230469 " fill-opacity="1" fill-rule="nonzero"/></svg>