<svg xmlns="http://www.w3.org/2000/svg" xmlns:xlink="http://www.w3.org/1999/xlink" width="40" zoomAndPan="magnify" viewBox="0 0 30 30.000001" height="40" preserveAspectRatio="xMidYMid meet" version="1.0"><defs><clipPath id="025ac21ebf"><path d="M 5 1.238281 L 25 1.238281 L 25 10 L 5 10 Z M 5 1.238281 " clip-rule="nonzero"/></clipPath></defs><path fill="#ffffff" d="M 24.328125 9.839844 C 24.191406 9.679688 24.015625 9.597656 23.804688 9.601562 L 7.472656 9.601562 C 7.261719 9.597656 7.089844 9.679688 6.949219 9.839844 C 6.832031 9.976562 6.792969 10.136719 6.824219 10.316406 L 9.714844 25.015625 C 10.03125 26.621094 11.609375 27.785156 13.46875 27.785156 L 17.808594 27.785156 C 19.671875 27.785156 21.25 26.621094 21.5625 25.015625 L 23.324219 16.054688 C 23.347656 15.929688 23.324219 15.808594 23.25 15.703125 C 23.179688 15.59375 23.078125 15.527344 22.949219 15.5 C 22.820312 15.476562 22.703125 15.5 22.59375 15.574219 C 22.488281 15.644531 22.421875 15.746094 22.394531 15.875 L 20.632812 24.832031 C 20.40625 25.996094 19.21875 26.839844 17.808594 26.839844 L 13.46875 26.839844 C 12.058594 26.839844 10.871094 25.996094 10.644531 24.832031 L 7.835938 10.546875 L 23.445312 10.546875 L 22.933594 13.136719 C 22.910156 13.265625 22.9375 13.382812 23.007812 13.488281 C 23.082031 13.597656 23.179688 13.664062 23.308594 13.6875 C 23.433594 13.710938 23.554688 13.6875 23.660156 13.617188 C 23.769531 13.546875 23.835938 13.449219 23.863281 13.320312 L 24.453125 10.3125 C 24.488281 10.136719 24.445312 9.976562 24.328125 9.839844 Z M 24.328125 9.839844 " fill-opacity="1" fill-rule="nonzero"/><g clip-path="url(#025ac21ebf)"><path fill="#ffffff" d="M 23.074219 6.804688 C 25.132812 6.359375 24.101562 4.589844 22.460938 3.691406 C 21.28125 3.003906 19.8125 2.625 18.890625 2.765625 L 17.496094 2.980469 L 17.261719 1.675781 C 17.238281 1.550781 17.171875 1.449219 17.070312 1.375 C 16.964844 1.300781 16.851562 1.273438 16.726562 1.289062 L 10.527344 2.203125 C 10.398438 2.222656 10.292969 2.289062 10.214844 2.394531 C 10.136719 2.503906 10.109375 2.625 10.132812 2.757812 L 10.371094 4.078125 L 9.582031 4.199219 C 8.089844 4.3125 4.851562 7.144531 5.6875 8.769531 C 5.835938 8.988281 6.039062 9.144531 6.289062 9.234375 C 6.539062 9.328125 6.792969 9.339844 7.046875 9.269531 Z M 11.148438 3.070312 L 16.410156 2.292969 L 16.558594 3.125 L 11.304688 3.933594 Z M 6.515625 8.308594 C 6.4375 8.171875 6.578125 7.554688 7.253906 6.769531 C 7.90625 5.964844 8.730469 5.421875 9.726562 5.132812 L 17.191406 3.984375 C 17.199219 3.984375 19.023438 3.703125 19.035156 3.703125 C 20.097656 3.671875 21.082031 3.941406 21.980469 4.507812 C 22.953125 5.074219 23.285156 5.625 23.265625 5.75 C 23.164062 5.824219 23.054688 5.863281 22.929688 5.867188 L 6.90625 8.335938 C 6.640625 8.375 6.527344 8.332031 6.515625 8.308594 Z M 6.515625 8.308594 " fill-opacity="1" fill-rule="nonzero"/></g><path fill="#ffffff" d="M 12.070312 15.429688 L 12.070312 22.761719 C 12.074219 22.890625 12.121094 23 12.210938 23.089844 C 12.304688 23.179688 12.414062 23.226562 12.542969 23.226562 C 12.671875 23.226562 12.785156 23.179688 12.875 23.089844 C 12.96875 23 13.015625 22.890625 13.015625 22.761719 L 13.015625 15.429688 C 13.015625 15.300781 12.96875 15.191406 12.875 15.101562 C 12.785156 15.011719 12.671875 14.964844 12.542969 14.964844 C 12.414062 14.964844 12.304688 15.011719 12.210938 15.101562 C 12.121094 15.191406 12.074219 15.300781 12.070312 15.429688 Z M 12.070312 15.429688 " fill-opacity="1" fill-rule="nonzero"/><path fill="#ffffff" d="M 15.167969 15.429688 L 15.167969 22.761719 C 15.167969 22.890625 15.214844 23 15.308594 23.089844 C 15.402344 23.179688 15.511719 23.226562 15.640625 23.226562 C 15.769531 23.226562 15.878906 23.179688 15.972656 23.089844 C 16.0625 23 16.109375 22.890625 16.113281 22.761719 L 16.113281 15.429688 C 16.109375 15.300781 16.0625 15.191406 15.972656 15.101562 C 15.878906 15.011719 15.769531 14.964844 15.640625 14.964844 C 15.511719 14.964844 15.402344 15.011719 15.308594 15.101562 C 15.214844 15.191406 15.167969 15.300781 15.167969 15.429688 Z M 15.167969 15.429688 " fill-opacity="1" fill-rule="nonzero"/><path fill="#ffffff" d="M 18.3125 15.429688 L 18.3125 22.761719 C 18.3125 22.890625 18.359375 23 18.453125 23.089844 C 18.546875 23.179688 18.65625 23.226562 18.785156 23.226562 C 18.914062 23.226562 19.023438 23.179688 19.117188 23.089844 C 19.207031 23 19.253906 22.890625 19.257812 22.761719 L 19.257812 15.429688 C 19.253906 15.300781 19.207031 15.191406 19.117188 15.101562 C 19.023438 15.011719 18.914062 14.964844 18.785156 14.964844 C 18.65625 14.964844 18.546875 15.011719 18.453125 15.101562 C 18.359375 15.191406 18.3125 15.300781 18.3125 15.429688 Z M 18.3125 15.429688 " fill-opacity="1" fill-rule="nonzero"/></svg>