<svg xmlns="http://www.w3.org/2000/svg" xmlns:xlink="http://www.w3.org/1999/xlink" width="40" zoomAndPan="magnify" viewBox="0 0 30 30.000001" height="40" preserveAspectRatio="xMidYMid meet" version="1.0"><defs><clipPath id="48f6a0e8a7"><path d="M 2.496094 0.925781 L 27.175781 0.925781 L 27.175781 27.78125 L 2.496094 27.78125 Z M 2.496094 0.925781 " clip-rule="nonzero"/></clipPath><clipPath id="9483d2df23"><path d="M 1.410156 0.925781 L 28.265625 0.925781 L 28.265625 27.78125 L 1.410156 27.78125 Z M 1.410156 0.925781 " clip-rule="nonzero"/></clipPath></defs><g clip-path="url(#48f6a0e8a7)"><path fill="#ffffff" d="M 27.492188 18.859375 C 27.492188 16.164062 25.300781 13.96875 22.601562 13.96875 C 22.027344 13.96875 21.480469 14.074219 20.96875 14.253906 C 19.71875 13.269531 18.28125 12.554688 16.753906 12.160156 C 18.617188 11.148438 19.886719 9.171875 19.886719 6.90625 C 19.886719 3.609375 17.203125 0.929688 13.910156 0.929688 C 10.613281 0.929688 7.929688 3.609375 7.929688 6.90625 C 7.929688 9.175781 9.203125 11.15625 11.074219 12.167969 C 6.152344 13.429688 2.496094 17.894531 2.496094 23.207031 L 2.496094 27.554688 C 2.496094 27.855469 2.742188 28.097656 3.039062 28.097656 C 3.339844 28.097656 3.585938 27.855469 3.585938 27.554688 L 3.585938 23.207031 C 3.585938 17.511719 8.214844 12.882812 13.910156 12.882812 C 16.054688 12.882812 18.148438 13.558594 19.886719 14.792969 C 18.578125 15.671875 17.710938 17.167969 17.710938 18.859375 C 17.710938 21.554688 19.90625 23.75 22.601562 23.75 C 23.175781 23.75 23.722656 23.644531 24.230469 23.464844 L 24.230469 27.554688 C 24.230469 27.855469 24.476562 28.097656 24.777344 28.097656 C 25.074219 28.097656 25.320312 27.855469 25.320312 27.554688 L 25.320312 23.207031 C 25.320312 23.113281 25.3125 23.019531 25.3125 22.925781 C 26.625 22.050781 27.492188 20.554688 27.492188 18.859375 Z M 9.019531 6.90625 C 9.019531 4.210938 11.210938 2.015625 13.910156 2.015625 C 16.605469 2.015625 18.796875 4.210938 18.796875 6.90625 C 18.796875 9.601562 16.605469 11.796875 13.910156 11.796875 C 11.210938 11.796875 9.019531 9.601562 9.019531 6.90625 Z M 18.796875 18.859375 C 18.796875 17.289062 19.757812 15.9375 21.121094 15.359375 C 21.125 15.355469 21.128906 15.355469 21.132812 15.351562 C 21.585938 15.160156 22.082031 15.054688 22.601562 15.054688 C 24.699219 15.054688 26.40625 16.761719 26.40625 18.859375 C 26.40625 20.957031 24.699219 22.664062 22.601562 22.664062 C 20.503906 22.664062 18.796875 20.957031 18.796875 18.859375 Z M 18.796875 18.859375 " fill-opacity="1" fill-rule="nonzero"/></g><path fill="#ffffff" d="M 24.140625 17.324219 C 23.925781 17.109375 23.582031 17.109375 23.371094 17.324219 L 22.601562 18.089844 L 21.832031 17.324219 C 21.621094 17.109375 21.277344 17.109375 21.066406 17.324219 C 20.851562 17.535156 20.851562 17.878906 21.066406 18.089844 L 21.832031 18.859375 L 21.066406 19.628906 C 20.851562 19.839844 20.851562 20.183594 21.066406 20.394531 C 21.171875 20.503906 21.308594 20.554688 21.449219 20.554688 C 21.589844 20.554688 21.726562 20.503906 21.832031 20.394531 L 22.601562 19.628906 L 23.371094 20.394531 C 23.476562 20.503906 23.617188 20.554688 23.753906 20.554688 C 23.894531 20.554688 24.03125 20.503906 24.140625 20.394531 C 24.351562 20.183594 24.351562 19.839844 24.140625 19.628906 L 23.371094 18.859375 L 24.140625 18.089844 C 24.351562 17.878906 24.351562 17.535156 24.140625 17.324219 Z M 24.140625 17.324219 " fill-opacity="1" fill-rule="nonzero"/><g clip-path="url(#9483d2df23)"><path fill="#46cc6b" d="M 28.265625 14.359375 C 28.265625 21.769531 22.257812 27.777344 14.847656 27.777344 C 12.863281 27.78125 10.976562 27.363281 9.179688 26.523438 C 8.078125 26.011719 6.933594 25.871094 5.742188 26.105469 L 3.648438 26.515625 C 2.761719 26.691406 2.070312 25.757812 2.496094 24.960938 C 3.324219 23.414062 3.390625 21.570312 2.65625 19.980469 C 1.839844 18.207031 1.429688 16.34375 1.425781 14.390625 C 1.410156 6.972656 7.410156 0.949219 14.824219 0.941406 C 22.246094 0.929688 28.265625 6.941406 28.265625 14.359375 Z M 28.265625 14.359375 " fill-opacity="1" fill-rule="nonzero"/></g><path fill="#ffffff" d="M 26.332031 14.359375 C 26.332031 15.113281 26.257812 15.859375 26.113281 16.597656 C 25.964844 17.339844 25.746094 18.058594 25.457031 18.753906 C 25.167969 19.449219 24.816406 20.113281 24.398438 20.738281 C 23.976562 21.367188 23.5 21.945312 22.96875 22.480469 C 22.433594 23.015625 21.855469 23.488281 21.226562 23.910156 C 20.601562 24.328125 19.9375 24.683594 19.242188 24.96875 C 18.542969 25.257812 17.828125 25.476562 17.085938 25.625 C 16.347656 25.769531 15.601562 25.84375 14.847656 25.84375 C 14.089844 25.84375 13.34375 25.769531 12.605469 25.625 C 11.863281 25.476562 11.148438 25.257812 10.449219 24.96875 C 9.753906 24.683594 9.089844 24.328125 8.464844 23.910156 C 7.835938 23.488281 7.257812 23.015625 6.722656 22.480469 C 6.191406 21.945312 5.714844 21.367188 5.296875 20.738281 C 4.875 20.113281 4.523438 19.449219 4.234375 18.753906 C 3.945312 18.058594 3.726562 17.339844 3.578125 16.597656 C 3.433594 15.859375 3.359375 15.113281 3.359375 14.359375 C 3.359375 13.605469 3.433594 12.855469 3.578125 12.117188 C 3.726562 11.378906 3.945312 10.660156 4.234375 9.960938 C 4.523438 9.265625 4.875 8.605469 5.296875 7.976562 C 5.714844 7.351562 6.191406 6.769531 6.722656 6.234375 C 7.257812 5.703125 7.835938 5.226562 8.464844 4.808594 C 9.089844 4.386719 9.753906 4.035156 10.449219 3.746094 C 11.148438 3.457031 11.863281 3.238281 12.605469 3.09375 C 13.34375 2.945312 14.089844 2.871094 14.847656 2.871094 C 15.601562 2.871094 16.347656 2.945312 17.085938 3.09375 C 17.828125 3.238281 18.542969 3.457031 19.242188 3.746094 C 19.9375 4.035156 20.601562 4.386719 21.226562 4.808594 C 21.855469 5.226562 22.433594 5.703125 22.96875 6.234375 C 23.5 6.769531 23.976562 7.351562 24.398438 7.976562 C 24.816406 8.605469 25.167969 9.265625 25.457031 9.960938 C 25.746094 10.660156 25.964844 11.378906 26.113281 12.117188 C 26.257812 12.855469 26.332031 13.605469 26.332031 14.359375 Z M 26.332031 14.359375 " fill-opacity="1" fill-rule="nonzero"/><path fill="#46cc6b" d="M 24.28125 14.359375 C 24.28125 14.976562 24.222656 15.589844 24.101562 16.199219 C 23.980469 16.808594 23.800781 17.398438 23.5625 17.96875 C 23.324219 18.542969 23.035156 19.085938 22.691406 19.601562 C 22.347656 20.117188 21.957031 20.59375 21.519531 21.03125 C 21.078125 21.46875 20.601562 21.859375 20.085938 22.203125 C 19.574219 22.546875 19.027344 22.839844 18.457031 23.074219 C 17.882812 23.3125 17.292969 23.492188 16.6875 23.613281 C 16.078125 23.734375 15.464844 23.792969 14.847656 23.792969 C 14.226562 23.792969 13.613281 23.734375 13.003906 23.613281 C 12.398438 23.492188 11.808594 23.3125 11.234375 23.074219 C 10.664062 22.839844 10.117188 22.546875 9.605469 22.203125 C 9.089844 21.859375 8.613281 21.46875 8.175781 21.03125 C 7.734375 20.59375 7.34375 20.117188 7 19.601562 C 6.65625 19.085938 6.367188 18.542969 6.128906 17.96875 C 5.890625 17.398438 5.710938 16.808594 5.589844 16.199219 C 5.472656 15.589844 5.410156 14.976562 5.410156 14.359375 C 5.410156 13.738281 5.472656 13.125 5.589844 12.515625 C 5.710938 11.910156 5.890625 11.320312 6.128906 10.746094 C 6.367188 10.175781 6.65625 9.632812 7 9.117188 C 7.34375 8.601562 7.734375 8.125 8.175781 7.6875 C 8.613281 7.25 9.089844 6.855469 9.605469 6.511719 C 10.117188 6.167969 10.664062 5.878906 11.234375 5.640625 C 11.808594 5.402344 12.398438 5.226562 13.003906 5.105469 C 13.613281 4.984375 14.226562 4.921875 14.847656 4.921875 C 15.464844 4.921875 16.078125 4.984375 16.6875 5.105469 C 17.292969 5.226562 17.882812 5.402344 18.457031 5.640625 C 19.027344 5.878906 19.574219 6.167969 20.085938 6.511719 C 20.601562 6.855469 21.078125 7.25 21.519531 7.6875 C 21.957031 8.125 22.347656 8.601562 22.691406 9.117188 C 23.035156 9.632812 23.324219 10.175781 23.5625 10.746094 C 23.800781 11.320312 23.980469 11.910156 24.101562 12.515625 C 24.222656 13.125 24.28125 13.738281 24.28125 14.359375 Z M 24.28125 14.359375 " fill-opacity="1" fill-rule="nonzero"/><path fill="#ffffff" d="M 13.464844 12.242188 L 12.988281 10.816406 C 12.929688 10.652344 12.84375 10.503906 12.726562 10.378906 C 12.609375 10.25 12.472656 10.152344 12.3125 10.085938 C 12.152344 10.015625 11.988281 9.984375 11.8125 9.984375 C 11.640625 9.988281 11.472656 10.027344 11.316406 10.097656 L 10.546875 10.457031 C 10.289062 10.578125 10.097656 10.765625 9.972656 11.019531 C 9.84375 11.277344 9.8125 11.542969 9.871094 11.820312 C 10.355469 14.046875 12.125 19.375 18.097656 20.042969 C 18.339844 20.070312 18.570312 20.027344 18.785156 19.914062 C 19.003906 19.804688 19.171875 19.644531 19.292969 19.429688 L 19.6875 18.730469 C 19.769531 18.589844 19.816406 18.4375 19.835938 18.277344 C 19.859375 18.117188 19.847656 17.960938 19.800781 17.804688 C 19.757812 17.648438 19.6875 17.507812 19.589844 17.378906 C 19.488281 17.253906 19.371094 17.148438 19.230469 17.070312 L 19.21875 17.066406 L 18.15625 16.472656 C 17.917969 16.34375 17.667969 16.296875 17.398438 16.332031 C 17.128906 16.367188 16.898438 16.484375 16.707031 16.671875 C 16.515625 16.863281 16.289062 16.976562 16.019531 17.015625 C 15.753906 17.050781 15.503906 17.007812 15.265625 16.878906 C 14.621094 16.523438 13.730469 15.914062 13.109375 15.019531 C 12.964844 14.8125 12.894531 14.585938 12.890625 14.335938 C 12.886719 14.085938 12.957031 13.855469 13.09375 13.644531 L 13.324219 13.300781 C 13.542969 12.972656 13.589844 12.617188 13.464844 12.242188 Z M 13.464844 12.242188 " fill-opacity="1" fill-rule="nonzero"/></svg>